<svg width="793" height="154" viewBox="0 0 793 154" fill="none" xmlns="http://www.w3.org/2000/svg">
<g clip-path="url(#clip0_13_32)">
<path d="M119.711 0H34.2891C15.3517 0 0 15.3517 0 34.2891V119.711C0 138.648 15.3517 154 34.2891 154H119.711C138.648 154 154 138.648 154 119.711V34.2891C154 15.3517 138.648 0 119.711 0Z" fill="url(#paint0_linear_13_32)"/>
<path d="M33.7693 17.7253C24.711 17.7253 17.7244 24.7105 17.7244 33.7677V37.9327C17.7244 38.2651 17.79 38.5943 17.9171 38.9014C18.0443 39.2085 18.2308 39.4875 18.4659 39.7225C18.7009 39.9576 18.9799 40.1441 19.287 40.2713C19.5941 40.3984 19.9233 40.464 20.2556 40.464C20.927 40.464 21.5708 40.1972 22.0454 39.7225C22.5201 39.2479 22.7869 38.6041 22.7869 37.9327V33.7677C22.7869 27.1566 27.1562 22.7876 33.7693 22.7876H37.9318C38.2643 22.7876 38.5934 22.7222 38.9005 22.595C39.2076 22.4678 39.4867 22.2814 39.7218 22.0464C39.9567 21.8113 40.1432 21.5322 40.2704 21.2251C40.3976 20.918 40.463 20.5889 40.463 20.2566C40.463 19.9241 40.3976 19.595 40.2704 19.2879C40.1432 18.9808 39.9567 18.7017 39.7218 18.4666C39.4867 18.2317 39.2076 18.0452 38.9005 17.918C38.5934 17.7908 38.2643 17.7253 37.9318 17.7253H33.7693ZM116.067 17.7253C115.735 17.7253 115.406 17.7908 115.098 17.918C114.791 18.0452 114.512 18.2317 114.277 18.4666C114.042 18.7017 113.856 18.9808 113.729 19.2879C113.601 19.595 113.536 19.9241 113.536 20.2566C113.536 20.5889 113.601 20.918 113.729 21.2251C113.856 21.5322 114.042 21.8113 114.277 22.0464C114.512 22.2814 114.791 22.4678 115.098 22.595C115.406 22.7222 115.735 22.7876 116.067 22.7876H120.23C126.843 22.7876 131.212 27.1566 131.212 33.7677V37.9327C131.212 38.6041 131.479 39.2479 131.954 39.7225C132.428 40.1972 133.072 40.464 133.743 40.464C134.076 40.464 134.405 40.3984 134.712 40.2713C135.019 40.1441 135.298 39.9576 135.533 39.7225C135.768 39.4875 135.955 39.2085 136.082 38.9014C136.209 38.5943 136.274 38.2651 136.274 37.9327V33.7677C136.274 24.7105 129.288 17.7253 120.23 17.7253H116.067ZM20.2556 113.537C19.9233 113.537 19.5941 113.602 19.287 113.729C18.9799 113.857 18.7009 114.043 18.4659 114.278C18.2308 114.513 18.0443 114.792 17.9171 115.099C17.79 115.406 17.7244 115.736 17.7244 116.068V120.231C17.7244 129.288 24.7117 136.275 33.7693 136.275H37.9318C38.2643 136.275 38.5934 136.21 38.9005 136.083C39.2076 135.956 39.4867 135.769 39.7218 135.534C39.9567 135.299 40.1432 135.02 40.2704 134.713C40.3976 134.406 40.463 134.077 40.463 133.744C40.463 133.412 40.3976 133.083 40.2704 132.776C40.1432 132.468 39.9567 132.189 39.7218 131.954C39.4867 131.719 39.2076 131.533 38.9005 131.406C38.5934 131.279 38.2643 131.213 37.9318 131.213H33.7693C27.1586 131.213 22.7869 126.841 22.7869 120.231V116.068C22.7869 115.397 22.5201 114.753 22.0454 114.278C21.5708 113.803 20.927 113.537 20.2556 113.537ZM133.743 113.537C133.072 113.537 132.428 113.803 131.954 114.278C131.479 114.753 131.212 115.397 131.212 116.068V120.231C131.212 126.841 126.84 131.213 120.23 131.213H116.067C115.735 131.213 115.406 131.279 115.098 131.406C114.791 131.533 114.512 131.719 114.277 131.954C114.042 132.189 113.856 132.468 113.729 132.776C113.601 133.083 113.536 133.412 113.536 133.744C113.536 134.077 113.601 134.406 113.729 134.713C113.856 135.02 114.042 135.299 114.277 135.534C114.512 135.769 114.791 135.956 115.098 136.083C115.406 136.21 115.735 136.275 116.067 136.275H120.23C129.287 136.275 136.274 129.288 136.274 120.231V116.068C136.274 115.736 136.209 115.406 136.082 115.099C135.955 114.792 135.768 114.513 135.533 114.278C135.298 114.043 135.019 113.857 134.712 113.729C134.405 113.602 134.076 113.537 133.743 113.537Z" fill="url(#paint1_linear_13_32)"/>
<path d="M77.0003 27.4106C74.2564 27.4105 71.5608 28.1327 69.1843 29.5045L39.7758 46.4832C37.3994 47.8552 35.426 49.8286 34.0542 52.2049C32.6821 54.5813 31.9598 57.277 31.96 60.021V93.9784C31.9598 96.7222 32.6821 99.418 34.0542 101.794C35.426 104.171 37.3994 106.144 39.7758 107.516L69.1843 124.495C71.5607 125.867 74.2563 126.589 77.0003 126.589C79.7442 126.589 82.4398 125.867 84.8161 124.495L114.223 107.516C116.6 106.144 118.573 104.171 119.945 101.794C121.317 99.418 122.039 96.7222 122.039 93.9784V60.021C122.039 57.277 121.317 54.5813 119.945 52.2049C118.573 49.8286 116.6 47.8552 114.223 46.4832L84.8161 29.5045C82.4398 28.1327 79.7442 27.4105 77.0003 27.4106ZM40.54 56.2781C40.9978 56.3263 41.4404 56.4702 41.839 56.7003L55.6066 64.6487V82.6682C55.6068 82.8392 55.6526 83.0071 55.7396 83.1541C55.8265 83.3014 55.9515 83.4224 56.1011 83.5048C56.2509 83.5873 56.4201 83.628 56.5909 83.6227C56.7618 83.6176 56.9281 83.5667 57.0725 83.4752L58.9725 82.2722C59.378 82.0154 59.8631 81.9148 60.3373 81.9892C60.8115 82.0635 61.2424 82.3077 61.5499 82.6762L67.615 89.9455C67.7817 90.1453 68.0059 90.289 68.257 90.3568C68.5083 90.4246 68.7742 90.4135 69.0189 90.3249C69.2636 90.2362 69.4749 90.0744 69.6244 89.8613C69.7737 89.6483 69.8539 89.3943 69.8539 89.1341V72.874L72.0721 74.1548C73.5705 75.0195 74.8147 76.2635 75.6797 77.7617C76.5449 79.2599 77.0003 80.9595 77.0003 82.6896V117.6C77.0005 118.176 76.8487 118.743 76.5604 119.242C76.272 119.742 75.8572 120.157 75.3577 120.445C74.8583 120.733 74.2916 120.885 73.7149 120.885C73.1381 120.885 72.5714 120.733 72.0721 120.445L41.839 102.989C40.3411 102.124 39.0972 100.88 38.2325 99.382C37.3676 97.8841 36.9122 96.185 36.9122 94.4554V59.5452C36.9122 59.0849 37.0089 58.6296 37.196 58.2091C37.3832 57.7886 37.6568 57.4121 37.9987 57.1041C38.3409 56.7959 38.7439 56.5633 39.1817 56.421C39.6195 56.2787 40.0823 56.23 40.54 56.2781ZM109.367 87.4986C109.442 87.4922 109.508 87.5049 109.563 87.5359C109.618 87.567 109.66 87.6158 109.685 87.6791L110.458 89.5686C110.619 89.9632 110.89 90.2563 111.248 90.4252C111.606 90.594 112.042 90.6337 112.522 90.5413L114.821 90.1004C114.937 90.0781 115.038 90.0993 115.109 90.161C115.18 90.2226 115.219 90.3216 115.219 90.444C115.219 90.5663 115.18 90.7058 115.109 90.843C115.038 90.9802 114.937 91.1078 114.821 91.2081L112.522 93.1953C112.042 93.6105 111.606 94.1116 111.248 94.6592C110.89 95.2067 110.619 95.786 110.458 96.3515L109.685 99.0588C109.647 99.1957 109.572 99.3363 109.472 99.4607C109.373 99.5851 109.253 99.6869 109.13 99.7517C109.008 99.8164 108.888 99.8409 108.789 99.8216C108.689 99.8022 108.615 99.7401 108.576 99.644L107.804 97.7547C107.643 97.3596 107.372 97.0662 107.014 96.8971C106.656 96.7281 106.22 96.6882 105.739 96.7804L103.441 97.2227C103.325 97.245 103.224 97.2238 103.153 97.1621C103.081 97.1005 103.043 97.0015 103.043 96.8792C103.043 96.7568 103.081 96.6173 103.153 96.4801C103.224 96.3431 103.325 96.2153 103.441 96.1149L105.739 94.128C106.22 93.7126 106.656 93.2117 107.014 92.6641C107.372 92.1164 107.643 91.5372 107.804 90.9717L108.576 88.2644C108.615 88.1277 108.69 87.9875 108.79 87.8635C108.889 87.7395 109.008 87.638 109.131 87.5735C109.212 87.5305 109.293 87.5051 109.367 87.4986Z" fill="url(#paint2_linear_13_32)"/>
</g>
<path d="M192.457 120V35.4492H212.906L236.93 96.2109H237.281L261.305 35.4492H281.754V120H265.992V62.8125H257.789L275.484 37.793L242.672 120H231.539L198.727 37.793L216.422 62.8125H208.219V120H192.457ZM323.18 121.289C316.812 121.289 311.305 119.98 306.656 117.363C302.008 114.746 298.414 110.996 295.875 106.113C293.336 101.23 292.066 95.3906 292.066 88.5938V88.4766C292.066 81.7188 293.355 75.918 295.934 71.0742C298.512 66.1914 302.125 62.4414 306.773 59.8242C311.422 57.207 316.871 55.8984 323.121 55.8984C329.41 55.8984 334.879 57.207 339.527 59.8242C344.215 62.4023 347.848 66.1328 350.426 71.0156C353.004 75.8594 354.293 81.6797 354.293 88.4766V88.5938C354.293 95.4297 353.004 101.289 350.426 106.172C347.887 111.055 344.293 114.805 339.645 117.422C334.996 120 329.508 121.289 323.18 121.289ZM323.238 107.871C326.012 107.871 328.414 107.129 330.445 105.645C332.516 104.121 334.098 101.934 335.191 99.082C336.324 96.1914 336.891 92.6953 336.891 88.5938V88.4766C336.891 84.4141 336.324 80.957 335.191 78.1055C334.059 75.2539 332.457 73.0859 330.387 71.6016C328.316 70.0781 325.895 69.3164 323.121 69.3164C320.387 69.3164 317.984 70.0781 315.914 71.6016C313.883 73.0859 312.301 75.2539 311.168 78.1055C310.035 80.957 309.469 84.4141 309.469 88.4766V88.5938C309.469 92.6953 310.016 96.1914 311.109 99.082C312.242 101.934 313.844 104.121 315.914 105.645C317.984 107.129 320.426 107.871 323.238 107.871ZM377.496 120L355.758 57.1875H374.039L387.164 104.883H387.516L400.465 57.1875H418.336L396.773 120H377.496ZM424.664 120V57.1875H441.773V120H424.664ZM433.219 49.1016C430.641 49.1016 428.473 48.2227 426.715 46.4648C424.957 44.707 424.078 42.6172 424.078 40.1953C424.078 37.7344 424.957 35.6445 426.715 33.9258C428.473 32.168 430.641 31.2891 433.219 31.2891C435.797 31.2891 437.965 32.168 439.723 33.9258C441.48 35.6445 442.359 37.7344 442.359 40.1953C442.359 42.6172 441.48 44.707 439.723 46.4648C437.965 48.2227 435.797 49.1016 433.219 49.1016ZM453.258 120V57.1875H470.367V67.5H470.719C472.359 63.9062 474.781 61.0742 477.984 59.0039C481.188 56.9336 485.152 55.8984 489.879 55.8984C496.793 55.8984 502.125 57.9883 505.875 62.168C509.664 66.3086 511.559 72.0703 511.559 79.4531V120H494.449V82.9688C494.449 78.8672 493.473 75.7031 491.52 73.4766C489.605 71.2109 486.734 70.0781 482.906 70.0781C480.367 70.0781 478.16 70.6641 476.285 71.8359C474.41 72.9688 472.945 74.5703 471.891 76.6406C470.875 78.7109 470.367 81.1328 470.367 83.9062V120H453.258ZM551.754 141.797C546.012 141.797 540.992 140.996 536.695 139.395C532.438 137.832 529.039 135.703 526.5 133.008C524 130.312 522.477 127.285 521.93 123.926L521.871 123.398H538.512L538.688 123.809C539.391 125.332 540.855 126.68 543.082 127.852C545.309 129.023 548.199 129.609 551.754 129.609C556.168 129.609 559.527 128.555 561.832 126.445C564.137 124.336 565.289 121.523 565.289 118.008V108.398H564.938C563.844 110.586 562.359 112.48 560.484 114.082C558.609 115.684 556.402 116.934 553.863 117.832C551.363 118.691 548.59 119.121 545.543 119.121C540.309 119.121 535.777 117.871 531.949 115.371C528.16 112.871 525.23 109.297 523.16 104.648C521.129 99.9609 520.113 94.375 520.113 87.8906V87.832C520.113 81.1523 521.148 75.4297 523.219 70.6641C525.328 65.8984 528.297 62.2461 532.125 59.707C535.953 57.168 540.523 55.8984 545.836 55.8984C548.805 55.8984 551.52 56.3867 553.98 57.3633C556.441 58.3398 558.59 59.7266 560.426 61.5234C562.301 63.3203 563.805 65.4492 564.938 67.9102H565.289V57.1875H582.398V118.242C582.398 122.891 581.148 126.973 578.648 130.488C576.188 134.043 572.652 136.816 568.043 138.809C563.473 140.801 558.043 141.797 551.754 141.797ZM551.461 106.582C554.273 106.582 556.715 105.84 558.785 104.355C560.855 102.871 562.457 100.762 563.59 98.0273C564.762 95.293 565.348 92.0508 565.348 88.3008V88.2422C565.348 84.4922 564.762 81.2695 563.59 78.5742C562.457 75.8398 560.836 73.75 558.727 72.3047C556.656 70.8203 554.234 70.0781 551.461 70.0781C548.648 70.0781 546.188 70.8203 544.078 72.3047C541.969 73.75 540.348 75.8203 539.215 78.5156C538.082 81.2109 537.516 84.4531 537.516 88.2422V88.3008C537.516 92.0508 538.082 95.293 539.215 98.0273C540.348 100.762 541.969 102.871 544.078 104.355C546.188 105.84 548.648 106.582 551.461 106.582ZM603.961 120V106.816H628.043C633.121 106.816 637.008 105.801 639.703 103.77C642.398 101.699 643.746 98.7109 643.746 94.8047V94.6875C643.746 92.1094 643.121 89.9414 641.871 88.1836C640.621 86.3867 638.766 85.0391 636.305 84.1406C633.883 83.2422 630.875 82.793 627.281 82.793H603.961V70.7812H625.172C630.172 70.7812 633.961 69.7852 636.539 67.793C639.156 65.7617 640.465 62.9297 640.465 59.2969V59.1797C640.465 55.8203 639.312 53.2227 637.008 51.3867C634.703 49.5117 631.48 48.5742 627.34 48.5742H603.961V35.4492H631.91C637.262 35.4492 641.871 36.3086 645.738 38.0273C649.605 39.7461 652.594 42.207 654.703 45.4102C656.812 48.5742 657.867 52.3242 657.867 56.6602V56.7773C657.867 59.8633 657.145 62.7344 655.699 65.3906C654.293 68.0078 652.359 70.1953 649.898 71.9531C647.438 73.6719 644.645 74.7461 641.52 75.1758V75.5273C645.465 75.8008 648.961 76.8555 652.008 78.6914C655.055 80.4883 657.438 82.8711 659.156 85.8398C660.914 88.7695 661.793 92.0898 661.793 95.8008V95.918C661.793 100.84 660.602 105.098 658.219 108.691C655.875 112.285 652.516 115.078 648.141 117.07C643.805 119.023 638.609 120 632.555 120H603.961ZM595.113 120V35.4492H612.809V120H595.113ZM699.234 121.289C692.867 121.289 687.359 119.98 682.711 117.363C678.062 114.746 674.469 110.996 671.93 106.113C669.391 101.23 668.121 95.3906 668.121 88.5938V88.4766C668.121 81.7188 669.41 75.918 671.988 71.0742C674.566 66.1914 678.18 62.4414 682.828 59.8242C687.477 57.207 692.926 55.8984 699.176 55.8984C705.465 55.8984 710.934 57.207 715.582 59.8242C720.27 62.4023 723.902 66.1328 726.48 71.0156C729.059 75.8594 730.348 81.6797 730.348 88.4766V88.5938C730.348 95.4297 729.059 101.289 726.48 106.172C723.941 111.055 720.348 114.805 715.699 117.422C711.051 120 705.562 121.289 699.234 121.289ZM699.293 107.871C702.066 107.871 704.469 107.129 706.5 105.645C708.57 104.121 710.152 101.934 711.246 99.082C712.379 96.1914 712.945 92.6953 712.945 88.5938V88.4766C712.945 84.4141 712.379 80.957 711.246 78.1055C710.113 75.2539 708.512 73.0859 706.441 71.6016C704.371 70.0781 701.949 69.3164 699.176 69.3164C696.441 69.3164 694.039 70.0781 691.969 71.6016C689.938 73.0859 688.355 75.2539 687.223 78.1055C686.09 80.957 685.523 84.4141 685.523 88.4766V88.5938C685.523 92.6953 686.07 96.1914 687.164 99.082C688.297 101.934 689.898 104.121 691.969 105.645C694.039 107.129 696.48 107.871 699.293 107.871ZM730.465 120L750.152 88.7109L730.582 57.1875H749.859L761.168 78.3984H761.52L772.652 57.1875H791.285L771.656 88.2422L791.109 120H772.535L760.582 98.2031H760.23L748.453 120H730.465Z" fill="#FAFAFA"/>
<defs>
<linearGradient id="paint0_linear_13_32" x1="77" y1="0" x2="77" y2="154" gradientUnits="userSpaceOnUse">
<stop stop-color="#313131"/>
<stop offset="1" stop-color="#141414"/>
</linearGradient>
<linearGradient id="paint1_linear_13_32" x1="57.0053" y1="136.275" x2="57.0053" y2="17.7253" gradientUnits="userSpaceOnUse">
<stop stop-color="#4EB86F"/>
<stop offset="1" stop-color="#60E789"/>
</linearGradient>
<linearGradient id="paint2_linear_13_32" x1="61.8071" y1="126.589" x2="61.8071" y2="27.4106" gradientUnits="userSpaceOnUse">
<stop stop-color="#4EB86F"/>
<stop offset="1" stop-color="#60E789"/>
</linearGradient>
<clipPath id="clip0_13_32">
<rect width="154" height="154" fill="white"/>
</clipPath>
</defs>
</svg>
