<svg width="24" height="24" viewBox="0 0 24 24" fill="none" xmlns="http://www.w3.org/2000/svg">
<g clip-path="url(#clip0_14_44)">
<path d="M5.34375 0C2.39248 0 0 2.39248 0 5.34375V18.6562C0 21.6075 2.39248 24 5.34375 24H18.6562C21.6075 24 24 21.6075 24 18.6562V5.34375C24 2.39248 21.6075 0 18.6562 0H5.34375Z" fill="url(#paint0_linear_14_44)"/>
<path d="M5.26271 2.76239C3.85102 2.76239 2.76221 3.85099 2.76221 5.26249V5.91159C2.76221 5.96339 2.77243 6.01469 2.79223 6.06255C2.81206 6.11041 2.84112 6.15389 2.87775 6.19052C2.91439 6.22716 2.95786 6.25622 3.00572 6.27605C3.05358 6.29585 3.10489 6.30607 3.15668 6.30607C3.26131 6.30607 3.36164 6.26449 3.43561 6.19052C3.50958 6.11655 3.55116 6.01622 3.55116 5.91159V5.26249C3.55116 4.2322 4.23207 3.55132 5.26271 3.55132H5.91141C5.96323 3.55132 6.01451 3.54112 6.06237 3.5213C6.11023 3.50147 6.15373 3.47243 6.19034 3.4358C6.22697 3.39916 6.25603 3.35566 6.27586 3.3078C6.29569 3.25994 6.30589 3.20866 6.30589 3.15687C6.30589 3.10505 6.29569 3.05377 6.27586 3.00591C6.25603 2.95805 6.22697 2.91455 6.19034 2.87791C6.15373 2.8413 6.11023 2.81224 6.06237 2.79241C6.01451 2.77259 5.96323 2.76239 5.91141 2.76239H5.26271ZM18.0883 2.76239C18.0365 2.76239 17.9852 2.77259 17.9374 2.79241C17.8895 2.81224 17.846 2.8413 17.8094 2.87791C17.7728 2.91455 17.7437 2.95805 17.7239 3.00591C17.7041 3.05377 17.6939 3.10505 17.6939 3.15687C17.6939 3.20866 17.7041 3.25994 17.7239 3.3078C17.7437 3.35566 17.7728 3.39916 17.8094 3.4358C17.846 3.47243 17.8895 3.50147 17.9374 3.5213C17.9852 3.54112 18.0365 3.55132 18.0883 3.55132H18.7371C19.7677 3.55132 20.4486 4.2322 20.4486 5.26249V5.91159C20.4486 6.01622 20.4902 6.11655 20.5641 6.19052C20.6381 6.26449 20.7385 6.30607 20.8431 6.30607C20.8949 6.30607 20.9462 6.29585 20.994 6.27605C21.0419 6.25622 21.0854 6.22716 21.122 6.19052C21.1587 6.15389 21.1877 6.11041 21.2075 6.06255C21.2273 6.01469 21.2375 5.96339 21.2375 5.91159V5.26249C21.2375 3.85099 20.1488 2.76239 18.7371 2.76239H18.0883ZM3.15668 17.694C3.10489 17.694 3.05358 17.7042 3.00572 17.7241C2.95786 17.7439 2.91439 17.773 2.87775 17.8096C2.84112 17.8462 2.81206 17.8897 2.79223 17.9376C2.77243 17.9854 2.76221 18.0367 2.76221 18.0885V18.7372C2.76221 20.1488 3.85114 21.2377 5.26271 21.2377H5.91141C5.96323 21.2377 6.01451 21.2275 6.06237 21.2077C6.11023 21.1879 6.15373 21.1588 6.19034 21.1222C6.22697 21.0855 6.25603 21.0421 6.27586 20.9942C6.29569 20.9463 6.30589 20.895 6.30589 20.8432C6.30589 20.7915 6.29569 20.7401 6.27586 20.6923C6.25603 20.6444 6.22697 20.601 6.19034 20.5643C6.15373 20.5277 6.11023 20.4986 6.06237 20.4788C6.01451 20.459 5.96323 20.4488 5.91141 20.4488H5.26271C4.23246 20.4488 3.55116 19.7675 3.55116 18.7372V18.0885C3.55116 17.9839 3.50958 17.8836 3.43561 17.8096C3.36164 17.7356 3.26131 17.694 3.15668 17.694ZM20.8431 17.694C20.7385 17.694 20.6381 17.7356 20.5641 17.8096C20.4902 17.8836 20.4486 17.9839 20.4486 18.0885V18.7372C20.4486 19.7674 19.7673 20.4488 18.7371 20.4488H18.0883C18.0365 20.4488 17.9852 20.459 17.9374 20.4788C17.8895 20.4986 17.846 20.5277 17.8094 20.5643C17.7728 20.601 17.7437 20.6444 17.7239 20.6923C17.7041 20.7401 17.6939 20.7915 17.6939 20.8432C17.6939 20.895 17.7041 20.9463 17.7239 20.9942C17.7437 21.0421 17.7728 21.0855 17.8094 21.1222C17.846 21.1588 17.8895 21.1879 17.9374 21.2077C17.9852 21.2275 18.0365 21.2377 18.0883 21.2377H18.7371C20.1486 21.2377 21.2375 20.1488 21.2375 18.7372V18.0885C21.2375 18.0367 21.2273 17.9854 21.2075 17.9376C21.1877 17.8897 21.1587 17.8462 21.122 17.8096C21.0854 17.773 21.0419 17.7439 20.994 17.7241C20.9462 17.7042 20.8949 17.694 20.8431 17.694Z" fill="white"/>
<path d="M12 4.27179C11.5724 4.27177 11.1523 4.38431 10.7819 4.59811L6.19876 7.24413C5.82842 7.45795 5.52088 7.7655 5.30708 8.13584C5.09326 8.50617 4.98069 8.92629 4.98071 9.35393V14.646C4.98069 15.0736 5.09326 15.4937 5.30708 15.864C5.52088 16.2344 5.82842 16.5419 6.19876 16.7558L10.7819 19.4018C11.1523 19.6156 11.5723 19.7281 12 19.7281C12.4276 19.7281 12.8477 19.6156 13.218 19.4018L17.801 16.7558C18.1713 16.5419 18.4789 16.2344 18.6927 15.864C18.9065 15.4937 19.019 15.0736 19.019 14.646V9.35393C19.0191 8.92629 18.9065 8.50617 18.6927 8.13584C18.4789 7.7655 18.1713 7.45795 17.801 7.24413L13.218 4.59811C12.8477 4.38431 12.4276 4.27177 12 4.27179ZM6.31787 8.77062C6.38921 8.77812 6.45819 8.80055 6.5203 8.83641L8.66593 10.0751V12.8834C8.66593 12.91 8.67308 12.9362 8.68663 12.9591C8.70017 12.982 8.71965 13.0009 8.74297 13.0137C8.76631 13.0266 8.79268 13.0329 8.81931 13.0321C8.84593 13.0313 8.87185 13.0234 8.89435 13.0091L9.19046 12.8216C9.25365 12.7816 9.32926 12.7659 9.40316 12.7775C9.47706 12.7891 9.54421 12.8272 9.59213 12.8846L10.5373 14.0175C10.5633 14.0486 10.5983 14.071 10.6374 14.0816C10.6766 14.0921 10.718 14.0904 10.7561 14.0766C10.7943 14.0628 10.8272 14.0376 10.8505 14.0044C10.8738 13.9712 10.8863 13.9316 10.8863 13.891V11.357L11.232 11.5566C11.4655 11.6914 11.6594 11.8852 11.7942 12.1187C11.929 12.3522 12 12.6171 12 12.8867V18.3272C12 18.4171 11.9764 18.5054 11.9314 18.5832C11.8865 18.6611 11.8218 18.7257 11.744 18.7707C11.6662 18.8156 11.5779 18.8393 11.488 18.8393C11.3981 18.8392 11.3098 18.8155 11.232 18.7706L6.5203 16.0502C6.28686 15.9154 6.09301 15.7215 5.95824 15.4881C5.82345 15.2547 5.75251 14.9899 5.75249 14.7203V9.27977C5.75249 9.20803 5.76756 9.13709 5.79671 9.07156C5.82589 9.006 5.86853 8.94734 5.92182 8.89934C5.97514 8.85131 6.03795 8.81506 6.10618 8.79288C6.17441 8.77071 6.24653 8.76312 6.31787 8.77062ZM17.0442 13.6361C17.0558 13.6351 17.0662 13.6371 17.0747 13.642C17.0833 13.6468 17.0897 13.6544 17.0938 13.6643L17.2142 13.9587C17.2393 14.0202 17.2815 14.0659 17.3373 14.0922C17.3931 14.1185 17.4611 14.1247 17.5359 14.1103L17.8941 14.0416C17.9122 14.0381 17.9279 14.0415 17.939 14.0511C17.9501 14.0607 17.9561 14.0761 17.9561 14.0952C17.9561 14.1142 17.9501 14.136 17.939 14.1574C17.9279 14.1787 17.9122 14.1986 17.8941 14.2143L17.5359 14.5239C17.4611 14.5886 17.3931 14.6667 17.3373 14.7521C17.2814 14.8374 17.2393 14.9277 17.2142 15.0158L17.0938 15.4377C17.0877 15.4591 17.0761 15.481 17.0606 15.5004C17.0451 15.5198 17.0264 15.5356 17.0073 15.5457C16.9882 15.5558 16.9695 15.5596 16.954 15.5566C16.9385 15.5536 16.9269 15.5439 16.9209 15.5289L16.8006 15.2345C16.7754 15.1729 16.7333 15.1272 16.6775 15.1009C16.6216 15.0745 16.5537 15.0683 16.4788 15.0827L16.1206 15.1516C16.1026 15.1551 16.0869 15.1518 16.0757 15.1421C16.0646 15.1325 16.0586 15.1171 16.0586 15.0981C16.0586 15.079 16.0646 15.0572 16.0757 15.0359C16.0869 15.0145 16.1026 14.9946 16.1206 14.979L16.4788 14.6693C16.5536 14.6046 16.6216 14.5265 16.6775 14.4412C16.7333 14.3558 16.7754 14.2655 16.8006 14.1774L16.9209 13.7555C16.927 13.7342 16.9386 13.7123 16.9542 13.693C16.9697 13.6737 16.9883 13.6579 17.0074 13.6478C17.02 13.6411 17.0326 13.6372 17.0442 13.6361Z" fill="white"/>
</g>
<defs>
<linearGradient id="paint0_linear_14_44" x1="7.95225" y1="24" x2="7.95225" y2="2.86102e-06" gradientUnits="userSpaceOnUse">
<stop stop-color="#4EB86F"/>
<stop offset="1" stop-color="#60E789"/>
</linearGradient>
<clipPath id="clip0_14_44">
<rect width="24" height="24" fill="white"/>
</clipPath>
</defs>
</svg>
